<?xml version="1.0" encoding="iso-8859-1"?>
<!-- Generator: Adobe Illustrator 21.0.0, SVG Export Plug-In . SVG Version: 6.00 Build 0)  -->
<svg version="1.1" id="Capa_1" xmlns="http://www.w3.org/2000/svg" xmlns:xlink="http://www.w3.org/1999/xlink" x="0px" y="0px"
	 viewBox="0 0 512 512" style="enable-background:new 0 0 512 512;" xml:space="preserve">
<path style="fill:#B38A65;" d="M360.189,153.472l-1.43-29.97c0,0-0.291-0.02-0.838,0.073c0.254-0.043,25.717-5.077,47.375-71.205
	l28.513,9.339c-11.685,35.678-26.545,61.661-44.166,77.233C374.696,152.147,362.485,153.362,360.189,153.472z"/>
<path style="fill:#2DD729;" d="M512,131.338l-15.402,11.741c-26.043,19.832-48.625,29.813-67.387,29.813
	c-5.991,0-11.591-1.02-16.792-3.06c-18.372-7.191-26.103-25.253-27.773-34.783l-0.4-2.33l0.35-2.34
	c1.47-9.571,8.801-27.793,27.013-35.374c21.312-8.881,49.825-0.49,84.738,24.932L512,131.338z"/>
<path style="fill:#FFAA20;" d="M366.945,360.87c-38.414,45.705-95.46,79.488-156.496,92.689c-18.772,4.07-37.284,6.071-55.245,6.071
	c-37.904,0-73.417-8.931-104.01-26.333c-5.601-3.19-11.031-6.661-16.282-10.411c-40.924-29.223-37.194-58.336-31.333-73.087
	c4.84-12.161,14.141-20.512,21.622-27.223c31.813-28.533,49.485-52.245,60.986-81.838c15.122-38.874,38.394-74.577,65.557-100.51
	c33.023-31.543,71.767-48.895,112.051-50.195c45.725-1.48,87.129,16.032,115.952,47.425c10.631,11.581,19.552,25.043,26.343,40.144
	C433.752,239.138,406.369,313.986,366.945,360.87z"/>
<path style="fill:#FF8900;" d="M366.945,360.87c-38.414,45.705-95.46,79.488-156.496,92.689c-18.772,4.07-37.284,6.071-55.245,6.071
	c-37.904,0-73.417-8.931-104.01-26.333l328.553-295.839c10.631,11.581,19.552,25.043,26.343,40.144
	C433.752,239.138,406.369,313.986,366.945,360.87z"/>
<path style="fill:#00AD00;" d="M512,131.338l-15.402,11.741c-26.043,19.832-48.625,29.813-67.387,29.813
	c-5.991,0-11.591-1.02-16.792-3.06c-18.372-7.191-26.103-25.253-27.773-34.783l-0.4-2.33L512,131.338z"/>
<g>
</g>
<g>
</g>
<g>
</g>
<g>
</g>
<g>
</g>
<g>
</g>
<g>
</g>
<g>
</g>
<g>
</g>
<g>
</g>
<g>
</g>
<g>
</g>
<g>
</g>
<g>
</g>
<g>
</g>
</svg>
